<?xml version="1.0" encoding="UTF-8" standalone="no"?><!DOCTYPE svg PUBLIC "-//W3C//DTD SVG 1.1//EN" "http://www.w3.org/Graphics/SVG/1.1/DTD/svg11.dtd"><svg width="100%" height="100%" viewBox="0 0 2234 2234" version="1.1" xmlns="http://www.w3.org/2000/svg" xmlns:xlink="http://www.w3.org/1999/xlink" xml:space="preserve" xmlns:serif="http://www.serif.com/" style="fill-rule:evenodd;clip-rule:evenodd;stroke-linejoin:round;stroke-miterlimit:2;"><g id="Capa-1" serif:id="Capa 1"><g><path d="M2230.18,1117.31c-0.001,614.979 -498.538,1113.52 -1113.52,1113.52c-614.975,0 -1113.52,-498.538 -1113.52,-1113.52c0,-614.979 498.542,-1113.52 1113.52,-1113.52c614.979,0 1113.52,498.537 1113.52,1113.52" style="fill:#e30613;fill-rule:nonzero;"/></g><path d="M1101.01,1660.03c-302.729,0 -548.137,-245.409 -548.137,-548.138c0,-302.725 245.408,-548.137 548.137,-548.137" style="fill:#fff;fill-rule:nonzero;"/><path d="M905.707,392.173l184.921,709.942l-4.029,1.05l-184.921,-709.943l4.029,-1.049Z" style="fill:#fff;"/><path d="M919.052,389.508c-2.179,-8.37 -10.738,-13.391 -19.109,-11.212c-8.37,2.183 -13.391,10.737 -11.212,19.108c2.183,8.375 10.737,13.392 19.112,11.213c8.367,-2.179 13.388,-10.738 11.209,-19.109" style="fill:#fff;fill-rule:nonzero;"/><path d="M653.336,594.737l426.928,507.411l-3.19,2.685l-426.928,-507.412l3.19,-2.684Z" style="fill:#fff;"/><path d="M664.232,586.593c-5.571,-6.621 -15.454,-7.471 -22.071,-1.9c-6.621,5.566 -7.471,15.454 -1.904,22.07c5.571,6.621 15.454,7.471 22.071,1.9c6.621,-5.566 7.471,-15.45 1.904,-22.07" style="fill:#fff;fill-rule:nonzero;"/><path d="M447.06,643.448l643.258,462.587l-2.433,3.383l-643.258,-462.587l2.433,-3.383Z" style="fill:#fff;"/><path d="M455.628,632.879c-7.025,-5.05 -16.817,-3.45 -21.867,3.571c-5.05,7.025 -3.45,16.816 3.571,21.866c7.025,5.05 16.817,3.45 21.867,-3.575c5.05,-7.021 3.454,-16.812 -3.571,-21.862" style="fill:#fff;fill-rule:nonzero;"/><path d="M345.512,811.72l738.479,301.422l-1.575,3.857l-738.478,-301.422l1.574,-3.857Z" style="fill:#fff;"/><path d="M351.37,799.44c-8.008,-3.271 -17.154,0.575 -20.421,8.583c-3.271,8.009 0.571,17.155 8.584,20.425c8.008,3.271 17.154,-0.575 20.425,-8.583c3.266,-8.008 -0.58,-17.154 -8.588,-20.425" style="fill:#fff;fill-rule:nonzero;"/><path d="M399.897,1006.83l690.153,96.687l-0.578,4.126l-690.153,-96.688l0.578,-4.125Z" style="fill:#fff;"/><path d="M402.56,993.488c-8.567,-1.2 -16.488,4.775 -17.688,13.342c-1.2,8.567 4.771,16.488 13.342,17.688c8.567,1.2 16.488,-4.775 17.688,-13.342c1.2,-8.567 -4.775,-16.488 -13.342,-17.688" style="fill:#fff;fill-rule:nonzero;"/><path d="M1051.64,1102.96l0.359,4.363l-721.788,59.425l-0.359,-4.363l721.788,-59.425Z" style="fill:#fff;"/><path d="M329.525,1149c-8.62,0.712 -15.033,8.279 -14.325,16.904c0.713,8.621 8.284,15.033 16.905,14.321c8.62,-0.713 15.037,-8.279 14.325,-16.904c-0.713,-8.621 -8.284,-15.034 -16.905,-14.321" style="fill:#fff;fill-rule:nonzero;"/><path d="M1089.11,1103.6l1.267,3.854l-802.113,263.709l-1.267,-3.854l802.113,-263.709Z" style="fill:#fff;"/><path d="M283.464,1354.06c-8.221,2.7 -12.692,11.554 -9.992,19.775c2.7,8.216 11.555,12.691 19.775,9.991c8.217,-2.7 12.692,-11.558 9.992,-19.775c-2.704,-8.216 -11.558,-12.691 -19.775,-9.991" style="fill:#fff;fill-rule:nonzero;"/><path d="M477.912,1501.6l-2.229,-3.517l606.404,-384.766l2.229,3.512l-606.404,384.771Z" style="fill:#fff;fill-rule:nonzero;"/><path d="M469.062,1486.19c-7.304,4.633 -9.467,14.316 -4.833,21.621c4.633,7.304 14.316,9.47 21.621,4.833c7.304,-4.633 9.466,-14.317 4.833,-21.621c-4.633,-7.304 -14.317,-9.467 -21.621,-4.833" style="fill:#fff;fill-rule:nonzero;"/><path d="M676.33,357.461l415.251,747.108l-3.643,2.026l-415.252,-747.109l3.644,-2.025Z" style="fill:#fff;"/><path d="M688.579,351.544c-4.2,-7.563 -13.742,-10.284 -21.304,-6.084c-7.559,4.205 -10.284,13.742 -6.08,21.305c4.205,7.562 13.742,10.283 21.305,6.083c7.558,-4.204 10.283,-13.742 6.079,-21.304" style="fill:#fff;fill-rule:nonzero;"/><path d="M533.568,1758.24l-3.158,-2.716l551.212,-641.813l3.158,2.721l-551.212,641.808Z" style="fill:#fff;fill-rule:nonzero;"/><path d="M520.614,1746.08c-5.637,6.563 -4.883,16.455 1.679,22.092c6.563,5.638 16.454,4.883 22.092,-1.679c5.633,-6.563 4.883,-16.454 -1.679,-22.092c-6.563,-5.633 -16.454,-4.883 -22.092,1.679" style="fill:#fff;fill-rule:nonzero;"/><path d="M789.187,1711.45l-3.671,-1.979l313.654,-582.6l3.671,1.979l-313.654,582.6Z" style="fill:#fff;fill-rule:nonzero;"/><path d="M773.926,1702.35c-4.1,7.617 -1.25,17.121 6.367,21.221c7.617,4.1 17.121,1.25 21.221,-6.367c4.1,-7.616 1.25,-17.12 -6.367,-21.22c-7.617,-4.1 -17.121,-1.25 -21.221,6.366" style="fill:#fff;fill-rule:nonzero;"/><path d="M930.15,1897.87l-4.083,-0.804l158.47,-800.734l4.084,0.804l-158.471,800.734Z" style="fill:#fff;fill-rule:nonzero;"/><path d="M912.889,1893.65c-1.679,8.487 3.838,16.729 12.325,18.408c8.488,1.679 16.729,-3.837 18.409,-12.325c1.683,-8.487 -3.838,-16.729 -12.326,-18.408c-8.487,-1.679 -16.729,3.837 -18.408,12.325" style="fill:#fff;fill-rule:nonzero;"/><rect x="1098.92" y="438.988" width="4.167" height="1352.17" style="fill:#fff;"/><path d="M1085.34,439.768c0,-8.65 7.017,-15.666 15.667,-15.666c8.65,0 15.667,7.016 15.667,15.666c0,8.65 -7.017,15.667 -15.667,15.667c-8.65,0 -15.667,-7.017 -15.667,-15.667" style="fill:#fff;fill-rule:nonzero;"/><path d="M1085.34,1790.38c0,8.65 7.017,15.667 15.667,15.667c8.65,0 15.667,-7.017 15.667,-15.667c0,-8.65 -7.017,-15.666 -15.667,-15.666c-8.65,0 -15.667,7.016 -15.667,15.666" style="fill:#fff;fill-rule:nonzero;"/><path d="M1156.89,1629.51l363.601,0c2.008,0 2.008,0 2.008,-1.984c0.004,-39.35 -0.008,-78.7 0.042,-118.05c0,-1.55 -0.38,-1.875 -1.892,-1.875c-79.971,0.042 -159.942,0.038 -239.913,0.038c-0.658,0 -1.316,-0.034 -1.975,-0.05l0,-121.821c80.875,0 161.755,0.004 242.63,-0.038c1.304,0 1.445,0.35 1.445,1.517c-0.033,80.371 -0.033,160.742 0,241.108c0,1.213 -0.208,1.496 -1.466,1.496c-121.038,-0.037 -242.071,-0.037 -363.109,-0.054c-0.446,0 -1.033,0.35 -1.371,-0.287" style="fill:#fefefe;fill-rule:nonzero;"/><path d="M1200.3,1471.28c0.134,-0.146 0.242,-0.325 0.4,-0.438c5.405,-3.958 10.825,-7.891 16.2,-11.887c0.809,-0.6 1.246,-0.204 1.83,0.217c5.183,3.741 10.37,7.479 15.562,11.208c0.342,0.246 0.621,0.65 1.242,0.621c-0.096,-0.321 -0.171,-0.604 -0.263,-0.879c-1.996,-6.171 -3.971,-12.346 -6.012,-18.496c-0.334,-1.004 -0.238,-1.571 0.671,-2.221c5.033,-3.608 10.008,-7.288 15.004,-10.946c0.421,-0.308 0.816,-0.658 1.45,-1.175c-6.984,0 -13.625,-0.025 -20.267,0.025c-1.075,0.008 -1.571,-0.275 -1.908,-1.346c-1.879,-5.991 -3.846,-11.954 -5.8,-17.921c-0.146,-0.441 -0.154,-0.979 -0.679,-1.4c-0.117,0.334 -0.2,0.555 -0.275,0.78c-2.009,6.166 -4.046,12.316 -5.992,18.5c-0.354,1.129 -0.863,1.441 -2.013,1.425c-4.87,-0.071 -9.745,-0.03 -14.62,-0.03l-5.938,0c0.275,0.675 0.783,0.85 1.175,1.134c5.092,3.696 10.171,7.408 15.313,11.033c1.066,0.75 1.22,1.4 0.812,2.604c-1.979,5.854 -3.858,11.742 -5.758,17.617c-0.163,0.5 -0.588,1.004 -0.117,1.562c-0.025,-0.02 -0.05,-0.041 -0.075,-0.062c0.021,0.025 0.038,0.05 0.058,0.075m78.459,-85.508l0,121.82c-0.659,0.017 -1.317,0.046 -1.975,0.046c-39.963,0.004 -79.929,0.004 -119.896,0.004c0,-40.191 0.008,-80.383 -0.029,-120.579c0,-1.096 0.225,-1.321 1.325,-1.321c40.191,0.034 80.383,0.03 120.575,0.03" style="fill:#0039a5;fill-rule:nonzero;"/><path d="M1200.32,1471.27c-0.471,-0.554 -0.046,-1.059 0.117,-1.559c1.9,-5.879 3.779,-11.766 5.758,-17.616c0.408,-1.209 0.254,-1.859 -0.813,-2.609c-5.141,-3.625 -10.22,-7.337 -15.312,-11.029c-0.392,-0.283 -0.9,-0.462 -1.175,-1.137l5.938,0c4.874,0 9.749,-0.038 14.624,0.029c1.146,0.017 1.655,-0.296 2.009,-1.421c1.946,-6.183 3.983,-12.337 5.991,-18.5c0.075,-0.225 0.159,-0.45 0.275,-0.783c0.525,0.421 0.534,0.958 0.68,1.4c1.954,5.966 3.92,11.933 5.8,17.921c0.337,1.075 0.833,1.358 1.908,1.35c6.642,-0.05 13.283,-0.025 20.267,-0.025c-0.634,0.516 -1.03,0.862 -1.45,1.175c-4.996,3.658 -9.971,7.337 -15.005,10.941c-0.908,0.65 -1.004,1.221 -0.67,2.221c2.041,6.154 4.016,12.329 6.012,18.496c0.092,0.279 0.167,0.558 0.263,0.879c-0.621,0.033 -0.896,-0.375 -1.242,-0.621c-5.192,-3.725 -10.379,-7.462 -15.563,-11.208c-0.583,-0.421 -1.02,-0.813 -1.829,-0.213c-5.375,3.996 -10.795,7.925 -16.2,11.884c-0.154,0.116 -0.266,0.291 -0.4,0.437l0.017,-0.012Z" style="fill:#fefefe;fill-rule:nonzero;"/><path d="M1200.3,1471.28c-0.02,-0.025 -0.037,-0.05 -0.058,-0.075c0.025,0.021 0.05,0.042 0.075,0.062l-0.017,0.013Z" style="fill:#fefefe;fill-rule:nonzero;"/><path d="M1156.89,1629.74l0,-121.87l119.438,0c0.654,0 1.312,-0.034 1.967,-0.05c0.658,0.016 1.312,0.05 1.97,0.05c79.663,0 159.33,0.004 238.992,-0.038c1.508,0 1.888,0.325 1.888,1.875c-0.05,39.35 -0.042,78.7 -0.042,118.05c0,1.983 0,1.983 -2.004,1.983l-362.209,0" style="fill:#e30613;fill-rule:nonzero;"/><path d="M1158.94,1627.77l360.337,0l0,-238.621l-360.337,0l0,238.621Zm364.508,4.167l-368.671,0l0,-246.955l368.671,0l0,246.955Z" style="fill:#fff;fill-rule:nonzero;"/><path d="M1235.78,827.574c-7.633,3.666 -15.263,5.5 -22.896,5.5c-15.262,0 -28.471,-5.9 -39.621,-17.704c-11.15,-11.805 -16.725,-36.455 -16.725,-73.946c0,-40.667 5.575,-68.042 16.725,-82.129c11.15,-14.084 24.654,-21.125 40.513,-21.125c5.946,0 13.283,0.987 22.004,2.97l0,23.192c-5.75,-2.279 -11.15,-3.417 -16.204,-3.417c-9.913,0 -18.388,5.034 -25.425,15.105c-7.038,10.07 -10.554,29.937 -10.554,59.6c0,17.662 0.766,31.479 2.304,41.445c1.537,9.975 5.079,17.909 10.629,23.813c5.55,5.904 12.537,8.854 20.962,8.854c4.959,0 11.055,-1.533 18.288,-4.608l0,22.45Z" style="fill:#fff;fill-rule:nonzero;"/><path d="M1345.2,737.106c0,-35.942 -2.112,-58.15 -6.333,-66.617c-4.229,-8.462 -10.567,-12.696 -19.017,-12.696c-9.941,0 -16.75,5.075 -20.425,15.225c-3.683,10.146 -5.516,27.255 -5.516,51.313l0,10.4c0,26.833 1.487,46.412 4.466,58.742c2.984,12.329 10.146,18.491 21.475,18.491c6.954,0 12.921,-3.462 17.892,-10.396c4.971,-6.933 7.458,-26.091 7.458,-57.479l0,-6.983Zm-78.05,-1.483c0,-41.105 4.038,-67.692 12.117,-79.78c8.075,-12.079 21.383,-18.12 39.917,-18.12c21.208,0 35.308,6.758 42.295,20.279c6.988,13.521 10.484,37.858 10.484,73.012c0,31.496 -1.563,53.334 -4.684,65.517c-3.125,12.179 -8.525,21.146 -16.208,26.887c-7.679,5.746 -18.112,8.617 -31.292,8.617c-13.579,0 -23.987,-2.65 -31.22,-7.95c-7.238,-5.296 -12.613,-13.887 -16.134,-25.775c-3.516,-11.883 -5.275,-32.779 -5.275,-62.687" style="fill:#fff;fill-rule:nonzero;"/><path d="M1433.06,724.545c9.913,-0.2 17.071,-2.55 21.484,-7.062c4.408,-4.508 6.616,-12.713 6.616,-24.604c0,-11.396 -2.008,-19.525 -6.02,-24.384c-4.017,-4.854 -10.88,-7.283 -20.592,-7.283l-1.488,0l0,63.333Zm58.43,106.3l-26.53,0l-29.67,-88.904l-2.23,0l0,88.904l-25.57,0l0,-189.408l35.383,0c28.842,0 43.262,16.158 43.262,48.467c0,14.671 -2.129,25.721 -6.391,33.154c-4.263,7.433 -11.2,13.033 -20.817,16.8l32.563,90.987Z" style="fill:#fff;fill-rule:nonzero;"/><path d="M1593.18,737.106c0,-35.942 -2.112,-58.15 -6.333,-66.617c-4.229,-8.462 -10.567,-12.696 -19.017,-12.696c-9.941,0 -16.75,5.075 -20.425,15.225c-3.683,10.146 -5.516,27.255 -5.516,51.313l0,10.4c0,26.833 1.487,46.412 4.47,58.742c2.98,12.329 10.142,18.491 21.471,18.491c6.959,0 12.921,-3.462 17.892,-10.396c4.971,-6.933 7.458,-26.091 7.458,-57.479l0,-6.983Zm-78.05,-1.483c0,-41.105 4.038,-67.692 12.117,-79.78c8.075,-12.079 21.383,-18.12 39.917,-18.12c21.208,0 35.308,6.758 42.295,20.279c6.988,13.521 10.484,37.858 10.484,73.012c0,31.496 -1.563,53.334 -4.684,65.517c-3.125,12.179 -8.525,21.146 -16.208,26.887c-7.679,5.746 -18.112,8.617 -31.292,8.617c-13.579,0 -23.987,-2.65 -31.22,-7.95c-7.238,-5.296 -12.613,-13.887 -16.134,-25.775c-3.516,-11.883 -5.275,-32.779 -5.275,-62.687" style="fill:#fff;fill-rule:nonzero;"/><path d="M1745.57,830.845l-20.071,0l-48.317,-129.996l-0.596,0.058l0,129.938l-22.895,0l0,-189.405l20.366,0l48.467,129.975l0.596,0.109l0,-130.084l22.45,0l0,189.405Z" style="fill:#fff;fill-rule:nonzero;"/><path d="M1842.3,774.201l-16.65,-89.866l-0.612,0l-15.742,89.866l33.004,0Zm34.988,56.642l-24.654,0l-6.929,-37.463l-40.092,0l-7.021,37.463l-24.333,0l40.883,-189.404l20.963,0l41.183,189.404Z" style="fill:#fff;fill-rule:nonzero;"/><path d="M1158.77,893.2l24.721,0l23.837,143.137l25.554,-143.137l24.309,0l-39.846,189.404l-20.217,0l-38.358,-189.404Z" style="fill:#fff;fill-rule:nonzero;"/><rect x="1285.88" y="893.2" width="25.571" height="189.404" style="fill:#fff;"/><path d="M1376.87,976.306c9.913,-0.2 17.071,-2.55 21.484,-7.062c4.408,-4.509 6.616,-12.713 6.616,-24.604c0,-11.396 -2.008,-19.525 -6.021,-24.384c-4.016,-4.854 -10.879,-7.283 -20.591,-7.283l-1.488,0l0,63.333Zm58.429,106.3l-26.529,0l-29.671,-88.904l-2.229,0l0,88.904l-25.571,0l0,-189.408l35.384,0c28.841,0 43.262,16.158 43.262,48.467c0,14.67 -2.129,25.72 -6.391,33.154c-4.263,7.433 -11.2,13.033 -20.817,16.8l32.562,90.987Z" style="fill:#fff;fill-rule:nonzero;"/><path d="M1550.22,1037.86c0,31.617 -14.175,47.425 -42.521,47.425c-31.121,0 -46.683,-15.708 -46.683,-47.129l0,-144.654l25.275,0l0,133.95c0,14.37 1.241,24.308 3.716,29.808c2.479,5.504 7.879,8.254 16.204,8.254c8.33,0 13.53,-2.9 15.613,-8.7c2.079,-5.796 3.121,-16.079 3.121,-30.846l0,-132.466l25.275,0l0,144.358Z" style="fill:#fff;fill-rule:nonzero;"/><path d="M1649.23,917.581c-8.325,-4.458 -15.808,-6.691 -22.45,-6.691c-6.641,0 -12.312,2.379 -17.02,7.137c-4.709,4.754 -7.063,10.5 -7.063,17.238c0,4.758 1.396,9.833 4.204,15.233c2.8,5.4 9.117,14.042 18.954,25.917c9.83,11.875 17.355,22.175 22.559,30.904c5.204,8.733 7.804,18.746 7.804,30.054c0,14.087 -4.238,25.517 -12.713,34.296c-8.475,8.775 -19.55,13.166 -33.225,13.166c-7.533,0 -16.75,-2.229 -27.654,-6.691l0,-22.746c0.296,0.1 0.596,0.25 0.892,0.446c1.487,1.091 4.608,2.75 9.367,4.983c4.758,2.229 9.416,3.342 13.975,3.342c7.433,0 13.554,-2.475 18.358,-7.434c4.808,-4.954 7.212,-11.3 7.212,-19.033c0,-5.35 -1.22,-10.304 -3.675,-14.867c-2.445,-4.558 -6.887,-10.762 -13.312,-18.604l-17.075,-21c-6.633,-8.141 -11.529,-15.583 -14.7,-22.329c-3.171,-6.75 -4.758,-14.779 -4.758,-24.104c0,-13.788 4.012,-24.996 12.041,-33.625c8.029,-8.633 18.434,-12.946 31.221,-12.946c8.921,0 17.942,2.229 27.058,6.688l0,20.666Z" style="fill:#fff;fill-rule:nonzero;"/><path d="M1234.66,1325.73c-7.633,3.667 -15.263,5.5 -22.896,5.5c-15.262,0 -28.471,-5.9 -39.621,-17.704c-11.15,-11.8 -16.725,-36.454 -16.725,-73.946c0,-40.666 5.575,-68.041 16.725,-82.129c11.15,-14.083 24.654,-21.125 40.513,-21.125c5.946,0 13.283,0.988 22.004,2.971l0,23.192c-5.75,-2.279 -11.15,-3.417 -16.204,-3.417c-9.913,0 -18.388,5.038 -25.425,15.104c-7.038,10.071 -10.554,29.938 -10.554,59.6c0,17.663 0.766,31.479 2.304,41.446c1.537,9.971 5.079,17.908 10.629,23.813c5.55,5.908 12.537,8.854 20.962,8.854c4.959,0 11.055,-1.534 18.288,-4.609l0,22.45Z" style="fill:#fff;fill-rule:nonzero;"/><path d="M1267.52,1139.6l25.571,0l0,73.742l39.4,0l0,-73.742l25.57,0l0,189.404l-25.57,0l0,-94.108l-39.4,0l0,94.108l-25.571,0l0,-189.404Z" style="fill:#fff;fill-rule:nonzero;"/><rect x="1398.2" y="1139.6" width="25.571" height="189.404" style="fill:#fff;"/><path d="M1532.15,1329l-68.537,0l0,-189.404l25.57,0l0,168.146l42.967,0l0,21.258Z" style="fill:#fff;fill-rule:nonzero;"/><path d="M1631.17,1329l-68.538,0l0,-189.404l67.35,0l0,21.554l-42.075,0l0,60.063l38.95,0l0,21.558l-38.95,0l0,65.267l43.263,0l0,20.962Z" style="fill:#fff;fill-rule:nonzero;"/></g></svg>